<svg xmlns="http://www.w3.org/2000/svg" width="44.816" height="37.769" viewBox="0 0 44.816 37.769">
  <g id="qr-scan" transform="translate(-3.478 -4)">
    <path id="Path_33" data-name="Path 33" d="M15.8,4H13.442A9.442,9.442,0,0,0,4,13.442V15.8a1.669,1.669,0,0,0,2.361,0V13.442a7.082,7.082,0,0,1,7.082-7.082H15.8A1.669,1.669,0,0,0,15.8,4Zm0,35.408H13.442a7.082,7.082,0,0,1-7.082-7.082V29.966a1.669,1.669,0,0,0-2.361,0v2.361a9.442,9.442,0,0,0,9.442,9.442H15.8A1.669,1.669,0,0,0,15.8,39.408Zm14.163,2.361a1.669,1.669,0,0,1,0-2.361h2.361a7.081,7.081,0,0,0,7.082-7.082V29.966a1.669,1.669,0,0,1,2.361,0v2.361a9.442,9.442,0,0,1-9.442,9.442Zm0-35.408a1.669,1.669,0,0,1,0-2.361h2.361a9.442,9.442,0,0,1,9.442,9.442V15.8a1.669,1.669,0,0,1-2.361,0V13.442a7.082,7.082,0,0,0-7.082-7.082Z" transform="translate(2.721)" fill="#069383"/>
    <path id="Path_34" data-name="Path 34" d="M7,11.721A4.721,4.721,0,0,1,11.721,7H25.884a4.721,4.721,0,0,1,4.721,4.721V25.884a4.721,4.721,0,0,1-4.721,4.721H11.721A4.721,4.721,0,0,1,7,25.884Z" transform="translate(6.803 4.082)" fill="rgba(6,147,131,0.3)"/>
    <path id="Path_35" data-name="Path 35" d="M2,12H44.316" transform="translate(2.728 10.884)" fill="none" stroke="#069383" stroke-linecap="round" stroke-width="2.5"/>
  </g>
</svg>
